
		<!-- ?xml version="1.0" encoding="UTF-8"?-->
		<svg class="site-logo" width="186px" height="50px" viewBox="0 0 186 50" version="1.1" xmlns="http://www.w3.org/2000/svg" xmlns:xlink="http://www.w3.org/1999/xlink">
			<g stroke="none" stroke-width="1" fill="none" fill-rule="evenodd">
				<g transform="translate(-134.000000, -20.000000)">
					<g>
						<g id="site-logo" transform="translate(134.000000, 20.000000)">
							<rect id="logo-background" x="1" y="0" width="186" height="50"></rect>
							<path id="logo-shape" d="M33.4014085,28.5526316 L17.0107042,24.8245614 C12.7869212,23.8666513 9.82564198,20.044013 9.93894213,15.6958077 C10.0522423,11.3476023 13.2085414,7.68581496 17.4764267,6.9511783 C21.744312,6.21654165 25.9341864,8.61382262 27.4821683,12.6760693 C29.0301502,16.738316 27.5047672,21.3332493 23.8394366,23.6491228 C23.7694744,23.7015627 23.7356365,23.789651 23.7523976,23.8757068 C23.7691588,23.9617626 23.8335503,24.030545 23.9180282,24.0526316 L31.2095775,25.7105263 C31.3830365,25.7509295 31.5639961,25.6857635 31.6723944,25.5438596 C35.2044426,20.8573651 35.8802618,14.5978186 33.4305397,9.25963413 C30.9808175,3.92144962 25.8036992,0.37222433 19.9622535,0.0263157895 L19.2811268,0.0263157895 C12.4734678,-0.0806359551 6.17960389,3.65128187 2.98325566,9.69006401 C-0.213092582,15.7288461 0.226544695,23.0571747 4.12169014,28.6666667 L18.7047887,49.5877193 C18.7689058,49.6759502 18.8711132,49.7281179 18.9798592,49.7281179 C19.0886051,49.7281179 19.1908125,49.6759502 19.2549296,49.5877193 L33.6109859,29.1052632 C33.6872133,29.0105357 33.7075514,28.8822387 33.6643845,28.7684127 C33.6212177,28.6545867 33.5210574,28.5724017 33.4014085,28.5526316 Z" fill="#FFC627" fill-rule="nonzero"></path>
							<path id="logo-shape" d="M47.4343662,9.80701754 C47.5755066,9.78854625 47.7136881,9.8579498 47.783662,9.98245614 L52.6476056,18.3157895 L52.8833803,18.3157895 L57.0138028,10.0964912 C57.0997232,9.90182819 57.3007126,9.78493912 57.5115493,9.80701754 L60.4805634,9.80701754 C60.5930551,9.80300058 60.6990999,9.8597077 60.7585959,9.95569449 C60.8180919,10.0516813 60.8219581,10.1722971 60.7687324,10.2719298 L52.2109859,25.4824561 C52.1132646,25.6631662 51.9168524,25.7670091 51.7132394,25.745614 L48.8053521,25.745614 C48.4822535,25.745614 48.4560563,25.5438596 48.5695775,25.3070175 L50.8661972,21.3596491 L43.9938028,10.1842105 C43.8802817,9.98245614 43.9938028,9.80701754 44.1684507,9.80701754 L47.4256338,9.80701754 L47.4343662,9.80701754 Z" fill="#000000" fill-rule="nonzero"></path>
							<path id="logo-shape" d="M65.8771831,9.80701754 C65.9898464,9.79250792 66.1028445,9.83125386 66.1831615,9.91193452 C66.2634786,9.99261518 66.3020499,10.1061249 66.2876056,10.2192982 L66.2876056,16.4736842 L72.8369014,10.0438596 C73.0548378,9.87821565 73.3236174,9.79442364 73.5966197,9.80701754 L77.1507042,9.80701754 C77.4126761,9.80701754 77.5,10.0438596 77.2991549,10.245614 L70.3132394,16.7982456 L77.7095775,25.3070175 C77.7959557,25.3741369 77.8275529,25.4906577 77.7869952,25.5925108 C77.7464376,25.694364 77.6435599,25.7568513 77.5349296,25.745614 L74.0419718,25.745614 C73.768516,25.76889 73.5000751,25.6616773 73.3171831,25.4561404 L67.7721127,18.8947368 L66.2701408,20.2982456 L66.2701408,25.3421053 C66.2845851,25.4552786 66.2460138,25.5687883 66.1656967,25.649469 C66.0853797,25.7301497 65.9723816,25.7688956 65.8597183,25.754386 L63.3011268,25.754386 C63.1884635,25.7688956 63.0754654,25.7301497 62.9951483,25.649469 C62.9148313,25.5687883 62.87626,25.4552786 62.8907042,25.3421053 L62.8907042,10.2017544 C62.87626,10.088581 62.9148313,9.97507132 62.9951483,9.89439066 C63.0754654,9.81371 63.1884635,9.77496406 63.3011268,9.78947368 L65.8597183,9.78947368 L65.8771831,9.80701754 Z" fill="#000000" fill-rule="nonzero"></path>
							<path id="logo-shape" d="M87.3850704,9.80701754 C88.9802876,9.72831616 90.5388501,10.304225 91.703047,11.4025653 C92.8672439,12.5009055 93.5370996,14.0273571 93.5588732,15.6315789 C93.5588732,19.0263158 90.9391549,21.5087719 87.3850704,21.5087719 L83.1673239,21.5087719 L83.1673239,25.3421053 C83.1817682,25.4552786 83.1431969,25.5687883 83.0628798,25.649469 C82.9825628,25.7301497 82.8695647,25.7688956 82.7569014,25.754386 L80.1983099,25.754386 C80.0856466,25.7688956 79.9726485,25.7301497 79.8923314,25.649469 C79.8120144,25.5687883 79.7734431,25.4552786 79.7878873,25.3421053 L79.7878873,10.2017544 C79.7734431,10.088581 79.8120144,9.97507132 79.8923314,9.89439066 C79.9726485,9.81371 80.0856466,9.77496406 80.1983099,9.78947368 L87.3938028,9.78947368 L87.3850704,9.80701754 Z M87.3850704,18.2894737 C88.1149278,18.3604844 88.8398916,18.1124257 89.3748414,17.6086397 C89.9097911,17.1048537 90.2029417,16.3941088 90.1794366,15.6578947 C90.2117834,14.9190622 89.9213431,14.2028771 89.3842479,13.6970707 C88.8471527,13.1912643 88.1169592,12.9462731 87.3850704,13.0263158 L83.1673239,13.0263158 L83.1673239,18.2894737 L87.3850704,18.2894737 Z" fill="#000000" fill-rule="nonzero"></path>
							<path id="logo-shape" d="M109.469296,9.80701754 C109.581959,9.79250792 109.694957,9.83125386 109.775274,9.91193452 C109.855591,9.99261518 109.894163,10.1061249 109.879718,10.2192982 L109.879718,25.3421053 C109.894163,25.4552786 109.855591,25.5687883 109.775274,25.649469 C109.694957,25.7301497 109.581959,25.7688956 109.469296,25.754386 L106.910704,25.754386 C106.798041,25.7688956 106.685043,25.7301497 106.604726,25.649469 C106.524409,25.5687883 106.485837,25.4552786 106.500282,25.3421053 L106.500282,12.9824561 L99.4532394,12.9824561 L99.4532394,25.3245614 C99.4676837,25.4377348 99.4291124,25.5512445 99.3487953,25.6319251 C99.2684783,25.7126058 99.1554802,25.7513517 99.0428169,25.7368421 L96.4842254,25.7368421 C96.3715621,25.7513517 96.258564,25.7126058 96.1782469,25.6319251 C96.0979299,25.5512445 96.0593586,25.4377348 96.0738028,25.3245614 L96.0738028,10.2017544 C96.0593586,10.088581 96.0979299,9.97507132 96.1782469,9.89439066 C96.258564,9.81371 96.3715621,9.77496406 96.4842254,9.78947368 L109.469296,9.78947368 L109.469296,9.80701754 Z" fill="#000000" fill-rule="nonzero"></path>
							<path id="logo-shape" d="M121.240563,9.56140351 C125.728286,9.66257484 129.295007,13.3803674 129.229836,17.8890679 C129.164664,22.3977684 125.49199,26.0099684 121.003235,25.9802105 C116.51448,25.9504525 112.889588,22.2898736 112.883662,17.7807018 C112.883161,15.5700684 113.76915,13.4524245 115.341603,11.9058632 C116.914056,10.3593019 119.040395,9.51421811 121.240563,9.56140351 M116.289296,17.7807018 C116.327734,20.5061479 118.54987,22.6889007 121.263213,22.6664659 C123.976555,22.6440312 126.162622,20.4248299 126.156393,17.6991174 C126.150165,14.973405 123.95398,12.764308 121.240563,12.754386 C119.903349,12.7036717 118.606277,13.2187474 117.665044,14.1742475 C116.72381,15.1297476 116.224737,16.4380419 116.289296,17.7807018" fill="#000000" fill-rule="nonzero"></path>
							<path id="logo-shape" d="M140.879718,22.5438596 L140.879718,10.2017544 C140.865274,10.088581 140.903845,9.97507132 140.984162,9.89439066 C141.064479,9.81371 141.177478,9.77496406 141.290141,9.78947368 L143.796338,9.78947368 C143.909001,9.77496406 144.021999,9.81371 144.102316,9.89439066 C144.182633,9.97507132 144.221205,10.088581 144.206761,10.2017544 L144.206761,22.5438596 L149.184225,22.5438596 L149.184225,10.2017544 C149.169781,10.088581 149.208352,9.97507132 149.288669,9.89439066 C149.368986,9.81371 149.481985,9.77496406 149.594648,9.78947368 L152.100845,9.78947368 C152.213508,9.77496406 152.326506,9.81371 152.406823,9.89439066 C152.487141,9.97507132 152.525712,10.088581 152.511268,10.2017544 L152.511268,25.3245614 C152.525712,25.4377348 152.487141,25.5512445 152.406823,25.6319251 C152.326506,25.7126058 152.213508,25.7513517 152.100845,25.7368421 L132.985634,25.7368421 C132.876062,25.7392621 132.770264,25.696603 132.692767,25.6187546 C132.615269,25.5409062 132.572802,25.4346291 132.575211,25.3245614 L132.575211,10.2017544 C132.560767,10.088581 132.599338,9.97507132 132.679655,9.89439066 C132.759972,9.81371 132.872971,9.77496406 132.985634,9.78947368 L135.491831,9.78947368 C135.604494,9.77496406 135.717492,9.81371 135.797809,9.89439066 C135.878126,9.97507132 135.916698,10.088581 135.902254,10.2017544 L135.902254,22.5438596 L140.879718,22.5438596 Z" fill="#000000" fill-rule="nonzero"></path>
							<path id="logo-shape" d="M168.67493,9.80701754 C168.787593,9.79250792 168.900591,9.83125386 168.980908,9.91193452 C169.061225,9.99261518 169.099796,10.1061249 169.085352,10.2192982 L169.085352,12.6140351 C169.099796,12.7272084 169.061225,12.8407182 168.980908,12.9213988 C168.900591,13.0020795 168.787593,13.0408254 168.67493,13.0263158 L163.610141,13.0263158 L163.610141,25.3070175 C163.624585,25.4201909 163.586014,25.5337006 163.505697,25.6143813 C163.42538,25.6950619 163.312382,25.7338079 163.199718,25.7192982 L160.641127,25.7192982 C160.528463,25.7338079 160.415465,25.6950619 160.335148,25.6143813 C160.254831,25.5337006 160.21626,25.4201909 160.230704,25.3070175 L160.230704,13.0263158 L155.192113,13.0263158 C155.079449,13.0408254 154.966451,13.0020795 154.886134,12.9213988 C154.805817,12.8407182 154.767246,12.7272084 154.78169,12.6140351 L154.78169,10.2192982 C154.767246,10.1061249 154.805817,9.99261518 154.886134,9.91193452 C154.966451,9.83125386 155.079449,9.79250792 155.192113,9.80701754 L168.701127,9.80701754 L168.67493,9.80701754 Z" fill="#000000" fill-rule="nonzero"></path>
							<path id="logo-shape" d="M181.127324,22.5789474 L173.207042,22.5789474 L172.098028,25.3859649 C172.030781,25.602968 171.8263,25.7471131 171.600282,25.7368421 L168.718592,25.7368421 C168.430423,25.7368421 168.343099,25.5877193 168.430423,25.3245614 L175.27662,10.0263158 C175.334735,9.8717038 175.488234,9.77488459 175.652113,9.78947368 L178.970423,9.78947368 C179.134302,9.77488459 179.2878,9.8717038 179.345915,10.0263158 L185.895211,25.2631579 C185.940772,25.3691928 185.928446,25.4913623 185.862635,25.5860595 C185.796824,25.6807566 185.686905,25.7344862 185.572113,25.7280702 L182.803944,25.7280702 C182.533015,25.7373895 182.286645,25.5712209 182.192676,25.3157895 L181.127324,22.5789474 Z M174.429577,19.5087719 L179.957183,19.5087719 L177.398592,12.9561404 L177.075493,12.9561404 L174.429577,19.5087719 Z" fill="#000000" fill-rule="nonzero"></path>
							<polygon id="logo-shape" fill="#000000" fill-rule="nonzero" points="46.2380282 39.4035088 46.2380282 32.6140351 50.7090141 32.6140351 50.7090141 33.4035088 47.1374648 33.4035088 47.1374648 39.4473684 46.2642254 39.4473684"></polygon>
							<path id="logo-shape" d="M58.5332394,35.9298246 C58.5332394,37.9298246 57.4329577,39.5614035 55.2760563,39.5614035 C53.1191549,39.5614035 52.0188732,37.8947368 52.0188732,35.9122807 C52.0188732,33.7807018 53.2850704,32.4035088 55.2673239,32.4035088 C57.3892958,32.4122807 58.5332394,33.8947368 58.5332394,35.9298246 Z M52.9183099,35.9736842 C52.9183099,37.6842105 53.8439437,38.7807018 55.2847887,38.7807018 C56.7256338,38.7807018 57.6338028,37.6666667 57.6338028,35.9736842 C57.6338028,34.2807018 56.708169,33.1929825 55.2673239,33.1929825 C53.6605634,33.2017544 52.9095775,34.5263158 52.9095775,35.9824561 L52.9183099,35.9736842 Z" fill="#000000" fill-rule="nonzero"></path>
							<path id="logo-shape" d="M65.5628169,39.4035088 L64.6895775,39.4035088 L64.6895775,33.3596491 L62.1746479,33.3596491 L62.043662,37.2017544 C62,38.5701754 61.5022535,39.5438596 60.471831,39.5438596 C60.2509229,39.5340891 60.0328924,39.4896937 59.8256338,39.4122807 L59.8256338,38.6491228 C59.9797677,38.7164524 60.1466129,38.749374 60.3146479,38.745614 C60.803662,38.745614 61.1878873,38.4736842 61.1878873,36.745614 L61.3101408,32.5877193 L65.5802817,32.5877193 L65.5802817,39.4122807 L65.5628169,39.4035088 Z" fill="#000000" fill-rule="nonzero"></path>
							<path id="logo-shape" d="M74.1904225,35.9298246 C74.1904225,37.9298246 73.0901408,39.5614035 70.9332394,39.5614035 C68.776338,39.5614035 67.6760563,37.8947368 67.6760563,35.9122807 C67.6760563,33.7807018 68.9509859,32.4035088 70.924507,32.4035088 C73.0377465,32.4122807 74.1904225,33.8947368 74.1904225,35.9298246 Z M68.575493,35.9736842 C68.575493,37.6842105 69.5011268,38.7807018 70.9419718,38.7807018 C72.3828169,38.7807018 73.2909859,37.6666667 73.2909859,35.9736842 C73.2909859,34.2807018 72.3653521,33.1929825 70.924507,33.1929825 C69.3177465,33.2017544 68.575493,34.5263158 68.575493,35.9824561 L68.575493,35.9736842 Z" fill="#000000" fill-rule="nonzero"></path>
							<path id="logo-shape" d="M79.2202817,32.6140351 C80.3467606,32.6140351 81.3859155,33.0614035 81.3859155,34.3245614 C81.3982543,34.9785815 80.9943434,35.5677859 80.3816901,35.7894737 C81.2027801,35.9483836 81.7695885,36.7075498 81.6915493,37.5438596 C81.6915493,39.1140351 80.4078873,39.4736842 79.071831,39.4736842 L76.2687324,39.4736842 L76.2687324,32.6140351 L79.2202817,32.6140351 Z M77.1943662,35.5350877 L78.8098592,35.5350877 C79.5783099,35.5350877 80.4952113,35.4736842 80.4952113,34.4561404 C80.4952113,33.4385965 79.7005634,33.3859649 78.8971831,33.3859649 L77.1943662,33.3859649 L77.1943662,35.5438596 L77.1943662,35.5350877 Z M77.1943662,38.6754386 L78.9932394,38.6754386 C79.8664789,38.6754386 80.7921127,38.6140351 80.7921127,37.4210526 C80.7921127,36.2280702 79.7529577,36.245614 78.8447887,36.245614 L77.2030986,36.245614 L77.2030986,38.6842105 L77.1943662,38.6754386 Z" fill="#000000" fill-rule="nonzero"></path>
							<polygon id="logo-shape" fill="#000000" fill-rule="nonzero" points="89.2188732 39.4035088 88.3456338 39.4035088 88.3456338 36.2105263 84.7566197 36.2105263 84.7566197 39.4035088 83.8833803 39.4035088 83.8833803 32.6140351 84.7566197 32.6140351 84.7566197 35.4649123 88.3456338 35.4649123 88.3456338 32.6140351 89.2188732 32.6140351 89.2188732 39.4385965"></polygon>
							<path id="logo-shape" d="M97.4098592,39.4035088 L96.4056338,39.4035088 L95.6546479,37.3157895 L92.7991549,37.3157895 L92.0219718,39.4035088 L91.0701408,39.4035088 L93.7422535,32.5789474 L94.7552113,32.5789474 L97.4098592,39.4035088 Z M94.2312676,33.4385965 L93.0523944,36.5964912 L95.3839437,36.5964912 L94.2312676,33.4385965 Z" fill="#000000" fill-rule="nonzero"></path>
							<polygon id="logo-shape" fill="#000000" fill-rule="nonzero" points="108.482535 39.4035088 107.609296 39.4035088 107.609296 33.3596491 104.020282 33.3596491 104.020282 39.4035088 103.147042 39.4035088 103.147042 32.6140351 108.53493 32.6140351 108.53493 39.4385965"></polygon>
							<path id="logo-shape" d="M117.127606,35.9298246 C117.127606,37.9298246 116.027324,39.5614035 113.870423,39.5614035 C111.713521,39.5614035 110.613239,37.8947368 110.613239,35.9122807 C110.613239,33.7807018 111.879437,32.4035088 113.86169,32.4035088 C115.97493,32.4122807 117.127606,33.8947368 117.127606,35.9298246 Z M111.512676,35.9736842 C111.512676,37.6842105 112.43831,38.7807018 113.879155,38.7807018 C115.32,38.7807018 116.228169,37.6666667 116.228169,35.9736842 C116.228169,34.2807018 115.302535,33.1929825 113.86169,33.1929825 C112.25493,33.2017544 111.530141,34.5263158 111.530141,35.9824561 L111.512676,35.9736842 Z" fill="#000000" fill-rule="nonzero"></path>
							<polygon id="logo-shape" fill="#000000" fill-rule="nonzero" points="119.240845 32.6140351 120.114085 32.6140351 120.114085 38.6578947 123.135493 38.6578947 123.135493 32.6140351 124.008732 32.6140351 124.008732 38.6578947 127.030141 38.6578947 127.030141 32.6140351 127.90338 32.6140351 127.90338 39.4385965 119.170986 39.4385965 119.170986 32.6140351"></polygon>
							<polygon id="logo-shape" fill="#000000" fill-rule="nonzero" points="135.34338 33.3596491 133.064225 33.3596491 133.064225 39.4035088 132.190986 39.4035088 132.190986 33.3596491 129.868169 33.3596491 129.868169 32.6140351 135.334648 32.6140351 135.334648 33.4035088"></polygon>
							<path id="logo-shape" d="M142.006197,39.4035088 L141.001972,39.4035088 L140.250986,37.3157895 L137.395493,37.3157895 L136.61831,39.4035088 L135.666479,39.4035088 L138.338592,32.6140351 L139.351549,32.6140351 L142.006197,39.4035088 Z M138.827606,33.4385965 L137.648732,36.5964912 L139.980282,36.5964912 L138.827606,33.4385965 Z" fill="#000000" fill-rule="nonzero"></path>
							<polygon id="logo-shape" fill="#000000" fill-rule="nonzero" points="150.345634 35.3157895 153.32338 39.4035088 152.179437 39.4035088 149.716901 35.8947368 148.590423 37 148.590423 39.3947368 147.717183 39.3947368 147.717183 32.6140351 148.590423 32.6140351 148.590423 36 152.039718 32.6140351 153.218592 32.6140351"></polygon>
							<path id="logo-shape" d="M158.021408,32.6140351 C159.322535,32.6140351 160.283099,33.1578947 160.283099,34.5789474 C160.283099,36 159.287606,36.6403509 157.960282,36.6403509 L156.117746,36.6403509 L156.117746,39.4385965 L155.244507,39.4385965 L155.244507,32.6140351 L158.047606,32.6140351 L158.021408,32.6140351 Z M156.117746,35.8859649 L157.864225,35.8859649 C158.737465,35.8859649 159.401127,35.6491228 159.401127,34.6403509 C159.401127,33.6315789 158.623944,33.3947368 157.741972,33.3947368 L156.135211,33.3947368 L156.135211,35.8859649 L156.117746,35.8859649 Z" fill="#000000" fill-rule="nonzero"></path>
							<path id="logo-shape" d="M167.417465,39.4035088 L166.413239,39.4035088 L165.670986,37.3157895 L162.815493,37.3157895 L162.03831,39.4035088 L161.086479,39.4035088 L163.758592,32.5789474 L164.797746,32.5789474 L167.417465,39.4035088 Z M164.238873,33.4385965 L163.06,36.5964912 L165.391549,36.5964912 L164.238873,33.4385965 Z" fill="#000000" fill-rule="nonzero"></path>
							<path id="logo-shape" d="M169.286197,31.9912281 L168.412958,31.9912281 L168.412958,31.0263158 L169.286197,31.0263158 L169.286197,31.9912281 Z M170.203099,39.4035088 L169.329859,39.4035088 L169.329859,32.6140351 L170.203099,32.6140351 L170.203099,39.4385965 L170.203099,39.4035088 Z M171.076338,31.9912281 L170.203099,31.9912281 L170.203099,31.0263158 L171.076338,31.0263158 L171.076338,31.9912281 Z" fill="#000000" fill-rule="nonzero"></path>
							<polygon id="logo-shape" fill="#000000" fill-rule="nonzero" points="178.079718 39.4035088 177.206479 39.4035088 177.206479 36.2105263 173.617465 36.2105263 173.617465 39.4035088 172.744225 39.4035088 172.744225 32.6140351 173.617465 32.6140351 173.617465 35.4649123 177.206479 35.4649123 177.206479 32.6140351 178.079718 32.6140351 178.079718 39.4385965"></polygon>
							<polygon id="logo-shape" fill="#000000" fill-rule="nonzero" points="180.516056 32.6140351 181.389296 32.6140351 181.389296 38.3947368 181.389296 38.3947368 184.72507 32.6140351 185.860282 32.6140351 185.860282 39.4385965 184.987042 39.4385965 184.987042 33.6403509 184.987042 33.6403509 181.642535 39.4385965 180.516056 39.4385965"></polygon>
						</g>
					</g>
				</g>
			</g>
		</svg>